<svg width="1424" height="1389" viewBox="0 0 1424 1389" fill="none" xmlns="http://www.w3.org/2000/svg">
<path d="M907.343 1273.13C604.119 1292.73 516.425 1098.17 516.471 882.257C300.553 882.303 205.626 691.87 125.6 491.385C56.4635 318.182 300.863 90.8789 516.64 100.345C736.939 110.009 1203.87 101.944 1286.06 100.415C1293.33 100.28 1299.46 105.447 1300.61 112.626C1313.11 190.563 1375.79 616.573 1298.38 882.088C1244.49 1066.95 1122.87 1259.2 907.343 1273.13Z" stroke="#121212" stroke-width="20"/>
<path d="M884.527 1378.62C649.584 1384.37 531.023 1283.39 481.558 1141.19C457.408 1071.76 478.272 888.654 481.558 807.188C345 773.188 266.211 862.712 203.668 795.188C121.302 706.26 68.5581 576.611 21.5011 443.45C-50.0214 241.055 241.556 -9.09316 489.288 11.7505C744.153 33.1943 1287.87 45.488 1376.31 47.3799C1383.58 47.5354 1389.25 52.7066 1390.13 59.9252C1400.3 144.216 1454.41 642.659 1352.31 946.921C1281.81 1157.04 1133.06 1372.54 884.527 1378.62Z" stroke="#121212" stroke-width="20" stroke-dasharray="10 10"/>
<path d="M333.385 737.323C473.332 746.153 604.972 736.287 674.987 570.363C727.393 446.169 719.731 389.109 660.056 303.443C590.167 203.114 437.964 170.464 360.974 210.817C99.5031 347.862 316.045 489.999 147.37 629.609C125.691 665.076 252.392 732.212 333.385 737.323Z" fill="#121212"/>
<path d="M351.023 415.049C365.436 403.901 379.62 409.135 389.935 417.642C374.561 396.329 359.71 359.765 374.088 316.673C397.153 247.546 526.668 249.318 597.635 401.753C668.603 554.189 574.417 607.581 537.314 617.113C517.805 622.125 501.623 614.365 487.036 600.786C470.306 644.587 480.952 656.108 508.452 734.098C522.599 774.221 374.088 807.657 374.088 772.207C349.74 745.586 361.148 670.612 380.301 635.724C399.453 600.836 390.627 538.52 384.247 495.828C342.354 474.906 325.811 434.549 351.023 415.049Z" fill="url(#paint0_linear)"/>
<path d="M596.276 1128.47C640.752 1061.56 591.363 1001.95 617.16 927.29C633.233 880.774 703.676 830.243 746.001 759.176C766.291 725.11 767.973 719.579 793.003 669.179C831.238 592.187 948 531.188 858.998 556.181C782.939 577.539 723.6 638.288 652.001 669.176C589.706 696.051 527.97 683.571 479.664 647.235C479.664 647.235 487.07 694.867 476.519 725.225C454.341 789.035 361.653 678.546 383.861 628.624C166.527 628.624 157.652 754.471 154.104 841.324C150.555 928.177 175.798 1027.44 200.637 1063.77C219.948 1092.02 293.782 1162.15 268.056 1107.2C247.476 1063.24 229.024 984.897 277.41 841.324C275.684 850.805 273.643 861.002 271.497 871.721C256.108 948.586 235.344 1052.3 287.168 1111.63C309.855 1137.6 400.228 1178.1 409.987 1235.71C429.862 1272.21 551.354 1196.06 596.276 1128.47Z" fill="url(#paint1_linear)"/>
<path d="M527.97 476.199C547.567 476.199 563.454 460.328 563.454 440.749C538.615 431.001 527.97 420.854 527.97 405.299" stroke="white" stroke-width="4.61869"/>
<ellipse rx="9.89631" ry="17.1294" transform="matrix(-0.866231 0.499643 0.500357 0.865819 464.989 377.85)" fill="white"/>
<ellipse rx="4.29809" ry="7.4395" transform="matrix(-0.866231 0.499643 0.500357 0.865819 469.98 376.109)" fill="#121212"/>
<ellipse rx="9.89631" ry="17.1294" transform="matrix(-0.866231 0.499643 0.500357 0.865819 565.677 378.112)" fill="white"/>
<ellipse rx="4.29809" ry="7.4395" transform="matrix(-0.866231 0.499643 0.500357 0.865819 570.478 376.109)" fill="#121212"/>
<path d="M435.492 394.864C444.023 409.624 455.151 420.893 466.14 427.23C477.189 433.602 487.645 434.774 495.326 430.343C503.008 425.913 507.219 416.28 507.22 403.534C507.222 390.858 503.018 375.596 494.488 360.835C485.957 346.074 474.829 334.806 463.84 328.469C452.791 322.097 442.335 320.924 434.654 325.355C426.972 329.786 422.761 339.419 422.76 352.164C422.758 364.84 426.962 380.103 435.492 394.864Z" stroke="#121212" stroke-width="4.61869"/>
<path d="M545.492 394.864C554.023 409.625 565.151 420.893 576.14 427.23C587.189 433.602 597.645 434.774 605.326 430.344C613.008 425.913 617.219 416.28 617.22 403.534C617.222 390.858 613.018 375.596 604.488 360.835C595.957 346.074 584.829 334.806 573.84 328.469C562.791 322.097 552.335 320.924 544.654 325.355C536.972 329.786 532.761 339.419 532.76 352.164C532.758 364.84 536.962 380.103 545.492 394.864Z" stroke="#121212" stroke-width="4.61869"/>
<path d="M537.537 378.336H502.537" stroke="#121212" stroke-width="4.62"/>
<path d="M574.215 506.906C580.596 513.197 577.38 523.397 571 529.687C577.38 535.978 580.596 546.178 574.215 552.469C567.834 558.76 557.489 558.76 551.108 552.469L531.612 533.248C529.626 531.29 529.626 528.085 531.612 526.127L551.108 506.906C557.489 500.615 567.834 500.615 574.215 506.906Z" fill="white"/>
<path d="M760.734 241.628C801.564 213.906 857.117 224.545 884.815 265.391C925.644 237.669 981.197 248.308 1008.9 289.154C1036.59 330 1025.95 385.586 985.118 413.308L849.457 505.418C842.723 509.99 833.556 508.235 828.988 501.498L736.958 365.782C709.26 324.936 719.905 269.351 760.734 241.628Z" fill="#7800D7"/>
<path d="M680.513 453.182C700.502 447.819 721.044 459.679 726.394 479.671C746.383 474.309 766.925 486.169 772.276 506.161C777.626 526.153 765.759 546.707 745.77 552.069L687.622 567.669C679.76 569.778 671.677 565.111 669.573 557.248L654.008 499.09C648.657 479.098 660.524 458.544 680.513 453.182Z" fill="#7800D7"/>
<defs>
<linearGradient id="paint0_linear" x1="481.256" y1="272.856" x2="481.256" y2="1199.86" gradientUnits="userSpaceOnUse">
<stop stop-color="#FFE600"/>
<stop offset="1" stop-color="#F65F0A"/>
</linearGradient>
<linearGradient id="paint1_linear" x1="409.241" y1="641.043" x2="409.241" y2="1214.97" gradientUnits="userSpaceOnUse">
<stop stop-color="#FF00D6"/>
<stop offset="1" stop-color="#F7265C"/>
</linearGradient>
</defs>
</svg>
