<svg width="1477" height="1706" viewBox="0 0 1477 1706" fill="none" xmlns="http://www.w3.org/2000/svg">
<path d="M1363.48 978.662C1363.48 1158.17 1303.48 1245.66 1198.41 1407.66C1087.98 1577.94 927.479 1549.66 723.477 1618.66C531.221 1683.69 358.592 1578.19 248.539 1407.66C159.479 1269.66 107.478 1157.66 83.4767 978.662C59.4755 799.662 59.4776 629.662 211.477 549.662C391.075 455.136 520.522 385.663 723.477 385.663C926.432 385.663 1083.48 337.662 1198.41 549.662C1283.97 707.469 1363.48 799.154 1363.48 978.662Z" fill="#121212"/>
<path d="M1446.17 1167.82C1392.59 1367.76 1299.67 1447.31 1134.33 1596.4C960.535 1753.12 790.25 1673.73 542.493 1689.71C309.002 1704.78 148.259 1535.76 76.6051 1312.99C18.6185 1132.71 -5.85979 992.443 20.8365 785.906C47.5328 579.369 98.2714 390.019 291.404 346.265C519.605 294.566 684.483 255.809 910.481 316.365C1136.48 376.921 1325.68 370.314 1390.4 640.739C1438.57 842.037 1499.74 967.88 1446.17 1167.82Z" stroke="#121212" stroke-width="20" stroke-dasharray="10 10"/>
<path d="M1224.51 1119.76C1187.22 1258.94 1122.52 1314.31 1007.39 1418.08C886.381 1527.15 767.794 1471.87 595.265 1482.98C432.67 1493.45 320.72 1375.79 270.805 1220.71C230.411 1095.21 213.354 997.569 231.929 853.801C250.503 710.032 285.821 578.23 420.31 547.787C579.218 511.817 694.031 484.851 851.413 527.022C1008.8 569.193 1140.55 564.608 1185.64 752.856C1219.2 892.984 1261.81 980.588 1224.51 1119.76Z" fill="white"/>
<path d="M1038.59 802.927C1091.61 894.752 1086.75 957.231 1080.84 1071.14C1074.63 1190.86 984.158 1223.81 900.162 1319.36C821.003 1409.42 701.522 1406.44 594.853 1351.72C508.53 1307.44 448.847 1265.5 383.702 1181.03C318.556 1096.55 268.35 1009.59 322.491 923.768C386.462 822.362 432.174 748.587 536.012 688.636C639.851 628.685 706.024 557.741 827.441 632.235C917.821 687.687 985.577 711.102 1038.59 802.927Z" fill="#121212"/>
<path d="M892.74 1168.96C846.202 1215.5 807.962 1222.63 738.721 1237.38C665.941 1252.89 631.655 1203.94 560.869 1168.93C494.16 1135.94 476.748 1063.83 492.421 991.08C505.104 932.211 520.656 889.691 560.839 837.062C601.021 784.433 645.094 740.361 705.247 759.034C776.322 781.097 827.898 796.652 880.524 849.278C933.15 901.903 986.315 930.181 961.157 1014.94C942.43 1078.04 939.277 1122.43 892.74 1168.96Z" fill="white"/>
<path d="M658.609 1123.32C627.829 1105.55 618.767 1086.6 601.392 1052.54C583.129 1016.74 603.87 992.016 612.239 950.198C620.125 910.788 655.309 891.625 695.447 889.633C727.928 888.021 752.282 890.19 785.352 903.795C818.422 917.4 847.572 934.23 846.24 968.218C844.665 1008.38 843.76 1037.46 823.664 1072.26C803.568 1107.07 796.248 1138.76 748.515 1137.48C712.984 1136.53 689.39 1141.09 658.609 1123.32Z" fill="#121212"/>
<path d="M774.446 561.727C900.059 499.401 1009.13 425.037 986.802 246.335C970.09 112.577 934.925 66.9919 840.412 22.6406C729.721 -29.3022 581.585 18.5233 535.086 91.9657C377.168 341.385 635.767 356.209 559.496 561.452C558.454 603.007 701.748 597.798 774.446 561.727Z" fill="#121212"/>
<path d="M647.79 244.865C662.203 233.717 676.387 238.951 686.701 247.458C671.328 226.145 656.477 189.581 670.855 146.489C693.92 77.3614 823.435 79.134 894.402 231.569C965.37 384.005 871.184 437.397 834.081 446.929C814.572 451.941 798.39 444.181 783.802 430.602C767.073 474.403 777.718 485.924 805.218 563.914C819.366 604.037 670.855 637.473 670.855 602.023C646.507 575.402 657.915 500.428 677.067 465.54C696.22 430.652 687.394 368.336 681.013 325.644C639.121 304.722 622.578 264.365 647.79 244.865Z" fill="url(#paint0_linear)"/>
<path d="M893.04 958.295C937.515 891.381 913.923 757.116 913.923 757.116C935.622 810.291 928.248 885.154 917.879 915.755C905.866 951.205 973.765 886.509 973.765 811.177L973.766 809.149C973.77 732.389 973.775 651.017 919.25 578.979C879.223 526.096 824.734 513.397 776.428 477.061C776.428 477.061 783.833 524.692 773.282 555.051C751.105 618.861 658.416 508.372 680.625 458.449C463.29 458.449 454.416 584.297 450.867 671.15C447.319 758.002 472.562 857.262 497.401 893.599C516.712 921.849 590.546 991.973 564.82 937.025C544.239 893.067 525.788 814.722 574.173 671.15C572.448 680.631 570.406 690.828 568.26 701.546C552.871 778.411 532.107 882.122 583.932 941.456C606.618 967.431 696.992 1007.93 706.75 1065.53C726.626 1102.04 848.118 1025.88 893.04 958.295Z" fill="url(#paint1_linear)"/>
<path d="M732.721 225.53C741.251 240.29 752.38 251.559 763.368 257.896C774.417 264.268 784.873 265.44 792.555 261.009C800.236 256.579 804.448 246.946 804.449 234.2C804.45 221.524 800.246 206.262 791.716 191.501C783.186 176.74 772.057 165.472 761.069 159.135C750.02 152.763 739.563 151.591 731.882 156.021C724.201 160.452 719.989 170.085 719.988 182.83C719.987 195.506 724.19 210.769 732.721 225.53Z" fill="white" stroke="#121212" stroke-width="4.61869"/>
<path d="M842.721 225.53C851.251 240.291 862.38 251.559 873.368 257.896C884.417 264.268 894.873 265.44 902.555 261.01C910.236 256.579 914.448 246.946 914.449 234.2C914.45 221.525 910.246 206.262 901.716 191.501C893.186 176.74 882.057 165.472 871.069 159.135C860.02 152.763 849.563 151.591 841.882 156.021C834.201 160.452 829.989 170.085 829.988 182.83C829.987 195.506 834.19 210.769 842.721 225.53Z" fill="white" stroke="#121212" stroke-width="4.61869"/>
<path d="M791.497 350.325C786.175 330.828 813.675 337.918 825.207 346.78C836.739 355.643 839.401 353.87 864.239 353.87C885.841 353.87 856.255 384.89 835.852 385.776C815.449 386.662 796.82 369.823 791.497 350.325Z" fill="white"/>
<path d="M899.25 251.065C918.765 220.046 881.507 172.19 862.877 168.646C841.657 164.608 837.152 189.916 848.684 214.731C860.216 239.547 877.071 255.499 889.49 247.523C901.91 239.547 890.377 197.006 872.636 190.803C854.894 184.599 857.839 224.48 876.184 230.684C894.529 236.888 882.394 213.845 876.184 207.641C869.974 201.438 866.426 207.641 872.636 214.731" stroke="#121212" stroke-width="4.61869"/>
<path d="M789.072 251.065C808.587 220.046 771.329 172.19 752.7 168.646C731.479 164.608 726.974 189.916 738.506 214.731C750.038 239.547 766.893 255.499 779.313 247.523C791.732 239.547 780.2 197.006 762.458 190.803C744.716 184.599 747.661 224.48 766.006 230.684C784.351 236.888 772.216 213.845 766.006 207.641C759.797 201.438 756.248 207.641 762.458 214.731" stroke="#121212" stroke-width="4.61869"/>
<path d="M799.768 209H833.768" stroke="#121212" stroke-width="4.62"/>
<path d="M824.733 306.013C844.33 306.013 860.217 290.142 860.217 270.563C835.378 260.815 824.733 250.668 824.733 235.113" stroke="white" stroke-width="4.61869"/>
<defs>
<linearGradient id="paint0_linear" x1="778.023" y1="102.672" x2="778.023" y2="1029.68" gradientUnits="userSpaceOnUse">
<stop stop-color="#FFE600"/>
<stop offset="1" stop-color="#F65F0A"/>
</linearGradient>
<linearGradient id="paint1_linear" x1="706.006" y1="470.857" x2="706.006" y2="1044.79" gradientUnits="userSpaceOnUse">
<stop stop-color="#FF00D6"/>
<stop offset="1" stop-color="#F7265C"/>
</linearGradient>
</defs>
</svg>
