<svg width="820" height="820" viewBox="0 0 820 820" fill="none" xmlns="http://www.w3.org/2000/svg">
<path d="M820 409.996C820 419.08 816.392 427.791 809.968 434.215C803.545 440.638 794.834 444.246 785.75 444.246H570.963C576.84 453.893 585.098 461.868 594.945 467.403C604.792 472.938 615.897 475.848 627.194 475.854H700.371C704.577 475.789 708.753 476.561 712.658 478.125C716.562 479.69 720.116 482.015 723.113 484.966C726.11 487.917 728.49 491.435 730.115 495.314C731.739 499.194 732.576 503.358 732.576 507.564C732.576 511.77 731.739 515.934 730.115 519.814C728.49 523.693 726.11 527.211 723.113 530.162C720.116 533.113 716.562 535.438 712.658 537.003C708.753 538.567 704.577 539.339 700.371 539.274H627.194C598.872 539.26 571.337 529.957 548.81 512.792C526.283 495.628 510.007 471.548 502.478 444.246H444.25V502.473C471.553 510.002 495.632 526.278 512.797 548.805C529.962 571.332 539.265 598.867 539.279 627.188C539.344 631.393 538.572 635.57 537.008 639.474C535.443 643.378 533.118 646.933 530.167 649.93C527.216 652.927 523.698 655.307 519.818 656.931C515.939 658.556 511.775 659.393 507.569 659.393C503.363 659.393 499.199 658.556 495.319 656.931C491.439 655.307 487.921 652.927 484.97 649.93C482.019 646.933 479.694 643.378 478.13 639.474C476.565 635.57 475.793 631.393 475.858 627.188C475.852 615.892 472.941 604.787 467.406 594.94C461.871 585.093 453.897 576.835 444.25 570.958V785.75C444.25 794.834 440.642 803.545 434.219 809.968C427.795 816.392 419.084 820 410 820C400.916 820 392.205 816.392 385.781 809.968C379.358 803.545 375.75 794.834 375.75 785.75V570.958C366.103 576.834 358.128 585.093 352.593 594.94C347.058 604.787 344.148 615.892 344.142 627.188V700.365C344.207 704.57 343.435 708.747 341.87 712.651C340.306 716.555 337.981 720.109 335.03 723.106C332.079 726.103 328.561 728.483 324.681 730.108C320.802 731.733 316.637 732.569 312.431 732.569C308.225 732.569 304.061 731.733 300.182 730.108C296.302 728.483 292.784 726.103 289.833 723.106C286.882 720.109 284.557 716.555 282.992 712.651C281.428 708.747 280.656 704.57 280.721 700.365V627.188C280.735 598.867 290.038 571.332 307.203 548.805C324.368 526.278 348.447 510.002 375.75 502.473V444.246H317.522C309.993 471.548 293.718 495.628 271.19 512.792C248.663 529.957 221.128 539.26 192.806 539.274C188.601 539.339 184.424 538.567 180.52 537.003C176.616 535.438 173.061 533.113 170.064 530.162C167.067 527.211 164.687 523.693 163.063 519.814C161.438 515.934 160.601 511.77 160.601 507.564C160.601 503.358 161.438 499.194 163.063 495.314C164.687 491.435 167.067 487.917 170.064 484.966C173.061 482.015 176.616 479.69 180.52 478.125C184.424 476.561 188.601 475.789 192.806 475.854C204.102 475.847 215.207 472.937 225.054 467.402C234.901 461.867 243.16 453.893 249.037 444.246H34.2502C25.1665 444.246 16.4548 440.638 10.0316 434.215C3.60849 427.791 0 419.08 0 409.996C0 400.913 3.60849 392.201 10.0316 385.778C16.4548 379.355 25.1665 375.746 34.2502 375.746H249.037C243.16 366.099 234.902 358.125 225.055 352.59C215.208 347.055 204.103 344.144 192.806 344.139H119.629C115.423 344.204 111.247 343.432 107.343 341.867C103.438 340.303 99.8841 337.977 96.887 335.026C93.8899 332.075 91.5098 328.558 89.8852 324.678C88.2606 320.799 87.4239 316.635 87.4239 312.429C87.4239 308.222 88.2606 304.058 89.8852 300.179C91.5098 296.299 93.8899 292.782 96.887 289.831C99.8841 286.88 103.438 284.554 107.343 282.99C111.247 281.425 115.423 280.653 119.629 280.718H192.806C221.128 280.733 248.663 290.035 271.19 307.2C293.718 324.365 309.993 348.444 317.522 375.746H375.75V317.519C348.447 309.99 324.368 293.715 307.203 271.188C290.038 248.661 280.735 221.126 280.721 192.805C280.656 188.599 281.428 184.423 282.992 180.518C284.557 176.614 286.882 173.06 289.833 170.063C292.784 167.066 296.302 164.686 300.182 163.061C304.061 161.437 308.225 160.6 312.431 160.6C316.637 160.6 320.802 161.437 324.681 163.061C328.561 164.686 332.079 167.066 335.03 170.063C337.981 173.06 340.306 176.614 341.87 180.518C343.435 184.423 344.207 188.599 344.142 192.805C344.148 204.101 347.059 215.205 352.594 225.052C358.129 234.899 366.103 243.158 375.75 249.035V34.2499C375.75 25.1662 379.358 16.4547 385.781 10.0316C392.205 3.60846 400.916 0 410 0C419.084 0 427.795 3.60846 434.219 10.0316C440.642 16.4547 444.25 25.1662 444.25 34.2499V249.035C453.898 243.158 461.872 234.9 467.407 225.053C472.942 215.206 475.852 204.101 475.858 192.805V119.628C475.793 115.422 476.565 111.246 478.13 107.342C479.694 103.437 482.019 99.8831 484.97 96.8861C487.921 93.8891 491.439 91.509 495.319 89.8844C499.199 88.2598 503.363 87.4231 507.569 87.4231C511.775 87.4231 515.939 88.2598 519.818 89.8844C523.698 91.509 527.216 93.8891 530.167 96.8861C533.118 99.8831 535.443 103.437 537.008 107.342C538.572 111.246 539.344 115.422 539.279 119.628V192.805C539.265 221.126 529.962 248.661 512.797 271.188C495.632 293.715 471.553 309.99 444.25 317.519V375.746H502.478C510.007 348.444 526.283 324.365 548.81 307.2C571.337 290.035 598.872 280.733 627.194 280.718C631.399 280.653 635.576 281.425 639.48 282.99C643.384 284.554 646.939 286.88 649.936 289.831C652.933 292.782 655.313 296.299 656.937 300.179C658.562 304.058 659.399 308.222 659.399 312.429C659.399 316.635 658.562 320.799 656.937 324.678C655.313 328.558 652.933 332.075 649.936 335.026C646.939 337.977 643.384 340.303 639.48 341.867C635.576 343.432 631.399 344.204 627.194 344.139C615.898 344.145 604.793 347.056 594.946 352.591C585.099 358.126 576.84 366.1 570.963 375.746H785.757C794.84 375.748 803.55 379.358 809.971 385.781C816.393 392.203 820 400.914 820 409.996V409.996Z" fill="#7800D7"/>
</svg>
