<svg width="1080" height="1080" viewBox="0 0 1080 1080" fill="none" xmlns="http://www.w3.org/2000/svg">
<circle cx="540" cy="540" r="540" fill="white"/>
<path d="M950 539.996C950 549.08 946.392 557.791 939.968 564.215C933.545 570.638 924.834 574.246 915.75 574.246H700.963C706.84 583.893 715.098 591.867 724.945 597.403C734.792 602.938 745.897 605.848 757.194 605.854H830.371C834.577 605.789 838.753 606.561 842.658 608.125C846.562 609.69 850.116 612.015 853.113 614.966C856.11 617.917 858.49 621.435 860.115 625.314C861.739 629.194 862.576 633.358 862.576 637.564C862.576 641.77 861.739 645.934 860.115 649.814C858.49 653.693 856.11 657.211 853.113 660.162C850.116 663.113 846.562 665.438 842.658 667.003C838.753 668.567 834.577 669.339 830.371 669.274H757.194C728.872 669.26 701.337 659.957 678.81 642.792C656.283 625.628 640.007 601.548 632.478 574.246H574.25V632.473C601.553 640.002 625.632 656.278 642.797 678.805C659.962 701.332 669.265 728.867 669.279 757.188C669.344 761.393 668.572 765.57 667.008 769.474C665.443 773.378 663.118 776.933 660.167 779.93C657.216 782.927 653.698 785.307 649.818 786.931C645.939 788.556 641.775 789.393 637.569 789.393C633.363 789.393 629.198 788.556 625.319 786.931C621.439 785.307 617.921 782.927 614.97 779.93C612.019 776.933 609.694 773.378 608.13 769.474C606.565 765.57 605.793 761.393 605.858 757.188C605.852 745.892 602.941 734.787 597.406 724.94C591.871 715.093 583.897 706.835 574.25 700.958V915.75C574.25 924.834 570.642 933.545 564.219 939.969C557.795 946.392 549.084 950 540 950C530.916 950 522.205 946.392 515.781 939.969C509.358 933.545 505.75 924.834 505.75 915.75V700.958C496.103 706.834 488.128 715.093 482.593 724.94C477.058 734.787 474.148 745.892 474.142 757.188V830.365C474.207 834.57 473.435 838.747 471.87 842.651C470.306 846.555 467.981 850.109 465.03 853.106C462.079 856.103 458.561 858.483 454.681 860.108C450.802 861.733 446.637 862.569 442.431 862.569C438.225 862.569 434.061 861.733 430.182 860.108C426.302 858.483 422.784 856.103 419.833 853.106C416.882 850.109 414.557 846.555 412.992 842.651C411.428 838.747 410.656 834.57 410.721 830.365V757.188C410.735 728.867 420.038 701.332 437.203 678.805C454.368 656.278 478.447 640.002 505.75 632.473V574.246H447.522C439.993 601.548 423.718 625.628 401.19 642.792C378.663 659.957 351.128 669.26 322.806 669.274C318.601 669.339 314.424 668.567 310.52 667.003C306.616 665.438 303.061 663.113 300.064 660.162C297.067 657.211 294.687 653.693 293.063 649.814C291.438 645.934 290.601 641.77 290.601 637.564C290.601 633.358 291.438 629.194 293.063 625.314C294.687 621.435 297.067 617.917 300.064 614.966C303.061 612.015 306.616 609.69 310.52 608.125C314.424 606.561 318.601 605.789 322.806 605.854C334.102 605.847 345.207 602.937 355.054 597.402C364.901 591.867 373.16 583.893 379.037 574.246H164.25C155.166 574.246 146.455 570.638 140.032 564.215C133.608 557.791 130 549.08 130 539.996C130 530.913 133.608 522.201 140.032 515.778C146.455 509.355 155.166 505.746 164.25 505.746H379.037C373.16 496.099 364.902 488.125 355.055 482.59C345.208 477.055 334.103 474.144 322.806 474.139H249.629C245.423 474.204 241.247 473.432 237.343 471.867C233.438 470.303 229.884 467.977 226.887 465.026C223.89 462.075 221.51 458.558 219.885 454.678C218.261 450.799 217.424 446.635 217.424 442.428C217.424 438.222 218.261 434.058 219.885 430.179C221.51 426.299 223.89 422.782 226.887 419.831C229.884 416.88 233.438 414.554 237.343 412.99C241.247 411.425 245.423 410.653 249.629 410.718H322.806C351.128 410.733 378.663 420.035 401.19 437.2C423.718 454.365 439.993 478.444 447.522 505.746H505.75V447.519C478.447 439.99 454.368 423.715 437.203 401.188C420.038 378.661 410.735 351.126 410.721 322.805C410.656 318.599 411.428 314.423 412.992 310.518C414.557 306.614 416.882 303.06 419.833 300.063C422.784 297.066 426.302 294.686 430.182 293.061C434.061 291.437 438.225 290.6 442.431 290.6C446.637 290.6 450.802 291.437 454.681 293.061C458.561 294.686 462.079 297.066 465.03 300.063C467.981 303.06 470.306 306.614 471.87 310.518C473.435 314.423 474.207 318.599 474.142 322.805C474.148 334.101 477.059 345.205 482.594 355.052C488.129 364.899 496.103 373.158 505.75 379.035V164.25C505.75 155.166 509.358 146.455 515.781 140.032C522.205 133.608 530.916 130 540 130C549.084 130 557.795 133.608 564.219 140.032C570.642 146.455 574.25 155.166 574.25 164.25V379.035C583.898 373.158 591.872 364.9 597.407 355.053C602.942 345.206 605.852 334.101 605.858 322.805V249.628C605.793 245.422 606.565 241.246 608.13 237.342C609.694 233.437 612.019 229.883 614.97 226.886C617.921 223.889 621.439 221.509 625.319 219.884C629.198 218.26 633.363 217.423 637.569 217.423C641.775 217.423 645.939 218.26 649.818 219.884C653.698 221.509 657.216 223.889 660.167 226.886C663.118 229.883 665.443 233.437 667.008 237.342C668.572 241.246 669.344 245.422 669.279 249.628V322.805C669.265 351.126 659.962 378.661 642.797 401.188C625.632 423.715 601.553 439.99 574.25 447.519V505.746H632.478C640.007 478.444 656.283 454.365 678.81 437.2C701.337 420.035 728.872 410.733 757.194 410.718C761.399 410.653 765.576 411.425 769.48 412.99C773.384 414.554 776.939 416.88 779.936 419.831C782.933 422.782 785.313 426.299 786.937 430.179C788.562 434.058 789.399 438.222 789.399 442.428C789.399 446.635 788.562 450.799 786.937 454.678C785.313 458.558 782.933 462.075 779.936 465.026C776.939 467.977 773.384 470.303 769.48 471.867C765.576 473.432 761.399 474.204 757.194 474.139C745.898 474.145 734.793 477.056 724.946 482.591C715.099 488.126 706.84 496.1 700.963 505.746H915.757C924.84 505.748 933.55 509.358 939.971 515.781C946.393 522.203 950 530.914 950 539.996Z" fill="#7800D7"/>
</svg>
