<svg id="Слой_1" data-name="Слой 1" xmlns="http://www.w3.org/2000/svg" viewBox="0 0 1080 1080"><defs><style>.cls-1{fill:#fff;}</style></defs><title>logo-white</title><path class="cls-1" d="M1080,540a45.11,45.11,0,0,1-45.11,45.11H752a86.77,86.77,0,0,0,74.06,41.63h96.38a41.77,41.77,0,1,1,0,83.53H826.06A170.48,170.48,0,0,1,661.8,585.11H585.11V661.8A170.48,170.48,0,0,1,710.27,826.06a41.77,41.77,0,1,1-83.53,0A86.78,86.78,0,0,0,585.11,752v282.9a45.11,45.11,0,0,1-90.22,0V752a86.77,86.77,0,0,0-41.63,74.06v96.38a41.77,41.77,0,1,1-83.53,0V826.06A170.48,170.48,0,0,1,494.89,661.8V585.11H418.2A170.48,170.48,0,0,1,253.94,710.27a41.77,41.77,0,1,1,0-83.53A86.78,86.78,0,0,0,328,585.11H45.11a45.11,45.11,0,0,1,0-90.22H328a86.77,86.77,0,0,0-74.06-41.63H157.56a41.77,41.77,0,1,1,0-83.53h96.38A170.48,170.48,0,0,1,418.2,494.89h76.69V418.2A170.48,170.48,0,0,1,369.73,253.94a41.77,41.77,0,1,1,83.53,0A86.78,86.78,0,0,0,494.89,328V45.11a45.11,45.11,0,0,1,90.22,0V328a86.77,86.77,0,0,0,41.63-74.06V157.56a41.77,41.77,0,1,1,83.53,0v96.38A170.48,170.48,0,0,1,585.11,418.2v76.69H661.8A170.48,170.48,0,0,1,826.06,369.73a41.77,41.77,0,1,1,0,83.53A86.78,86.78,0,0,0,752,494.89h282.9A45.11,45.11,0,0,1,1080,540Z"/></svg>