<svg width="1564" height="1744" viewBox="0 0 1564 1744" fill="none" xmlns="http://www.w3.org/2000/svg">
<path d="M237.029 1232.82C107.634 1019.84 81.935 797.721 237.029 594.629C456.17 307.669 652.07 482.578 794.129 392C1202.41 131.673 1528.89 101 1373.8 351.34C1218.7 601.68 1567.6 1137.52 1373.8 1387.96C1232.8 1570.15 1051.27 1740.55 769.281 1493.73C595.078 1341.26 347.719 1415.01 237.029 1232.82Z" stroke="#121212" stroke-width="20"/>
<path d="M149.172 1244.6C11.8106 997.328 -7.54433 744.264 177.302 520.744C438.481 204.92 652.945 411.944 818.048 315.467C1292.56 38.1877 1664.18 17.786 1477.25 294.896C1290.32 572.007 1662.39 1195.16 1431.56 1470.67C1263.62 1671.11 1050.23 1856.38 741.306 1564C550.46 1383.38 266.676 1456.13 149.172 1244.6Z" stroke="#121212" stroke-width="20" stroke-dasharray="10 10"/>
<path d="M635.724 116.707C558.103 233.49 500.827 352.426 609.514 496.023C690.866 603.505 744.113 625.4 848.139 616.553C969.971 606.191 1074.35 490.705 1077.9 403.853C1089.95 108.89 858.582 225.352 822.014 9.47063C802.138 -27.0376 680.646 49.1201 635.724 116.707Z" fill="#121212"/>
<path d="M712.153 449.703C726.566 438.555 740.75 443.789 751.065 452.296C735.692 430.983 720.84 394.419 735.218 351.327C758.284 282.199 887.798 283.972 958.766 436.407C1029.73 588.842 935.547 642.235 898.444 651.767C878.935 656.779 862.754 649.018 848.166 635.44C831.437 679.24 842.082 690.762 869.582 768.752C883.729 808.875 735.218 842.311 735.218 806.861C710.87 780.24 722.279 705.266 741.431 670.378C760.583 635.49 751.757 573.174 745.377 530.482C703.484 509.56 686.941 469.203 712.153 449.703Z" fill="url(#paint0_linear)"/>
<path d="M957.403 1163.13C1001.88 1096.22 952.489 1036.61 978.286 961.954C994.36 915.438 1061.04 856.389 1107.13 793.84C1199.81 668.061 1241.13 447.841 1175.13 561.84C1137.65 626.576 1107.13 663.288 1013.13 703.84C950.832 730.715 889.096 718.235 840.791 681.899C840.791 681.899 848.196 729.531 837.645 759.889C815.468 823.699 722.779 713.21 744.988 663.288C629.182 663.288 636.774 695.779 545.129 681.899C429.218 664.343 411.129 575.841 375.129 531.841C332.248 479.431 371.671 641.091 397.129 703.84C442.732 816.245 610.844 849.84 632.623 906.385C666.37 994.001 596.47 1086.96 648.294 1146.29C670.981 1172.27 761.355 1212.76 771.113 1270.37C790.988 1306.88 912.48 1230.72 957.403 1163.13Z" fill="url(#paint1_linear)"/>
<path d="M855.86 555.164C850.538 535.667 878.038 542.757 889.57 551.619C901.102 560.482 903.764 558.709 928.602 558.709C950.204 558.709 920.618 589.729 900.215 590.615C879.812 591.501 861.183 574.662 855.86 555.164Z" fill="white"/>
<path d="M876.096 510.851C895.693 510.851 911.58 494.98 911.58 475.401C886.741 465.652 876.096 455.506 876.096 439.951" stroke="white" stroke-width="4.61869"/>
<ellipse rx="9.89631" ry="17.1294" transform="matrix(-1 -0.000411689 0.000411941 1 826.581 413.354)" fill="white"/>
<ellipse rx="4.29809" ry="7.4395" transform="matrix(-1 -0.000411689 0.000411941 1 826.432 414.342)" fill="#121212"/>
<ellipse rx="9.89631" ry="17.1294" transform="matrix(-1 -0.000411722 0.000411909 1 927.271 413.615)" fill="white"/>
<ellipse rx="4.29809" ry="7.4395" transform="matrix(-1 -0.000411722 0.000411909 1 928.43 414.281)" fill="#121212"/>
<path d="M792.529 413.353C792.543 430.401 796.553 445.723 802.905 456.702C809.293 467.742 817.764 473.982 826.632 473.982C835.5 473.982 843.961 467.742 850.33 456.702C856.665 445.723 860.649 430.401 860.635 413.353C860.621 396.304 856.611 380.983 850.259 370.004C843.871 358.963 835.4 352.723 826.532 352.723C817.665 352.723 809.203 358.963 802.834 370.004C796.5 380.983 792.515 396.304 792.529 413.353Z" stroke="#121212" stroke-width="4.61869"/>
<path d="M902.529 413.353C902.543 430.401 906.553 445.723 912.905 456.702C919.293 467.742 927.764 473.982 936.632 473.982C945.5 473.982 953.961 467.742 960.33 456.702C966.664 445.723 970.649 430.401 970.635 413.353C970.621 396.304 966.611 380.983 960.259 370.004C953.871 358.963 945.4 352.723 936.532 352.723C927.665 352.723 919.203 358.963 912.834 370.004C906.5 380.983 902.515 396.304 902.529 413.353Z" stroke="#121212" stroke-width="4.61869"/>
<path d="M902.129 413.84H862.129" stroke="#121212" stroke-width="4.62"/>
<defs>
<linearGradient id="paint0_linear" x1="842.386" y1="307.51" x2="842.386" y2="1234.52" gradientUnits="userSpaceOnUse">
<stop stop-color="#FFE600"/>
<stop offset="1" stop-color="#F65F0A"/>
</linearGradient>
<linearGradient id="paint1_linear" x1="770.369" y1="675.695" x2="770.369" y2="1249.63" gradientUnits="userSpaceOnUse">
<stop stop-color="#FF00D6"/>
<stop offset="1" stop-color="#F7265C"/>
</linearGradient>
</defs>
</svg>
